<svg width="435" height="56" viewBox="0 0 435 56" fill="none" xmlns="http://www.w3.org/2000/svg">
<path d="M23.38 55.84C20.02 55.84 16.92 55.3 14.08 54.22C11.24 53.14 8.76 51.62 6.64 49.66C4.56 47.66 2.94 45.34 1.78 42.7C0.62 40.06 0.0400001 37.16 0.0400001 34C0.0400001 30.84 0.62 27.94 1.78 25.3C2.94 22.66 4.56 20.36 6.64 18.4C8.76 16.4 11.24 14.86 14.08 13.78C16.92 12.7 20.02 12.16 23.38 12.16C26.78 12.16 29.88 12.7 32.68 13.78C35.52 14.86 37.98 16.4 40.06 18.4C42.14 20.36 43.76 22.66 44.92 25.3C46.12 27.94 46.72 30.84 46.72 34C46.72 37.16 46.12 40.08 44.92 42.76C43.76 45.4 42.14 47.7 40.06 49.66C37.98 51.62 35.52 53.14 32.68 54.22C29.88 55.3 26.78 55.84 23.38 55.84ZM23.38 46C24.98 46 26.46 45.72 27.82 45.16C29.22 44.6 30.42 43.8 31.42 42.76C32.46 41.68 33.26 40.4 33.82 38.92C34.42 37.44 34.72 35.8 34.72 34C34.72 32.16 34.42 30.52 33.82 29.08C33.26 27.6 32.46 26.34 31.42 25.3C30.42 24.22 29.22 23.4 27.82 22.84C26.46 22.28 24.98 22 23.38 22C21.78 22 20.28 22.28 18.88 22.84C17.52 23.4 16.32 24.22 15.28 25.3C14.28 26.34 13.48 27.6 12.88 29.08C12.32 30.52 12.04 32.16 12.04 34C12.04 35.8 12.32 37.44 12.88 38.92C13.48 40.4 14.28 41.68 15.28 42.76C16.32 43.8 17.52 44.6 18.88 45.16C20.28 45.72 21.78 46 23.38 46ZM17.5 9.58L25.54 0.459998H36.94L25.66 9.58H17.5ZM61.2963 55V22.42H48.3963V13H86.0163V22.42H73.1763V55H61.2963ZM90.4422 55V13H102.322V55H90.4422ZM131.714 55.84C128.394 55.84 125.314 55.32 122.474 54.28C119.674 53.2 117.234 51.68 115.154 49.72C113.114 47.76 111.514 45.46 110.354 42.82C109.194 40.14 108.614 37.2 108.614 34C108.614 30.8 109.194 27.88 110.354 25.24C111.514 22.56 113.114 20.24 115.154 18.28C117.234 16.32 119.674 14.82 122.474 13.78C125.314 12.7 128.394 12.16 131.714 12.16C135.594 12.16 139.054 12.84 142.094 14.2C145.174 15.56 147.734 17.52 149.774 20.08L142.214 26.92C140.854 25.32 139.354 24.1 137.714 23.26C136.114 22.42 134.314 22 132.314 22C130.594 22 129.014 22.28 127.574 22.84C126.134 23.4 124.894 24.22 123.854 25.3C122.854 26.34 122.054 27.6 121.454 29.08C120.894 30.56 120.614 32.2 120.614 34C120.614 35.8 120.894 37.44 121.454 38.92C122.054 40.4 122.854 41.68 123.854 42.76C124.894 43.8 126.134 44.6 127.574 45.16C129.014 45.72 130.594 46 132.314 46C134.314 46 136.114 45.58 137.714 44.74C139.354 43.9 140.854 42.68 142.214 41.08L149.774 47.92C147.734 50.44 145.174 52.4 142.094 53.8C139.054 55.16 135.594 55.84 131.714 55.84ZM149.328 55L167.868 13H179.568L198.168 55H185.808L171.288 18.82H175.968L161.448 55H149.328ZM159.468 46.84L162.528 38.08H183.048L186.108 46.84H159.468ZM218.997 55V13H240.477C245.997 13 250.117 14.02 252.837 16.06C255.557 18.06 256.917 20.7 256.917 23.98C256.917 26.14 256.337 28.04 255.177 29.68C254.057 31.28 252.457 32.56 250.377 33.52C248.337 34.44 245.897 34.9 243.057 34.9L244.257 32.02C247.217 32.02 249.797 32.48 251.997 33.4C254.197 34.28 255.897 35.58 257.097 37.3C258.337 38.98 258.957 41.04 258.957 43.48C258.957 47.12 257.477 49.96 254.517 52C251.597 54 247.317 55 241.677 55H218.997ZM230.757 46.42H240.717C242.757 46.42 244.297 46.08 245.337 45.4C246.417 44.68 246.957 43.6 246.957 42.16C246.957 40.72 246.417 39.66 245.337 38.98C244.297 38.26 242.757 37.9 240.717 37.9H229.917V29.68H238.917C240.917 29.68 242.417 29.34 243.417 28.66C244.417 27.98 244.917 26.96 244.917 25.6C244.917 24.24 244.417 23.24 243.417 22.6C242.417 21.92 240.917 21.58 238.917 21.58H230.757V46.42ZM276.03 29.26H295.53V38.14H276.03V29.26ZM276.87 45.82H298.83V55H265.11V13H298.05V22.18H276.87V45.82ZM300.383 55L318.923 13H330.623L349.223 55H336.863L322.343 18.82H327.023L312.503 55H300.383ZM310.523 46.84L313.583 38.08H334.103L337.163 46.84H310.523ZM352.591 55V13H362.371L385.531 40.96H380.911V13H392.551V55H382.771L359.611 27.04H364.231V55H352.591ZM415.69 55.84C412.25 55.84 408.93 55.42 405.73 54.58C402.57 53.7 399.99 52.58 397.99 51.22L401.89 42.46C403.77 43.66 405.93 44.66 408.37 45.46C410.85 46.22 413.31 46.6 415.75 46.6C417.39 46.6 418.71 46.46 419.71 46.18C420.71 45.86 421.43 45.46 421.87 44.98C422.35 44.46 422.59 43.86 422.59 43.18C422.59 42.22 422.15 41.46 421.27 40.9C420.39 40.34 419.25 39.88 417.85 39.52C416.45 39.16 414.89 38.8 413.17 38.44C411.49 38.08 409.79 37.62 408.07 37.06C406.39 36.5 404.85 35.78 403.45 34.9C402.05 33.98 400.91 32.8 400.03 31.36C399.15 29.88 398.71 28.02 398.71 25.78C398.71 23.26 399.39 20.98 400.75 18.94C402.15 16.9 404.23 15.26 406.99 14.02C409.75 12.78 413.19 12.16 417.31 12.16C420.07 12.16 422.77 12.48 425.41 13.12C428.09 13.72 430.47 14.62 432.55 15.82L428.89 24.64C426.89 23.56 424.91 22.76 422.95 22.24C420.99 21.68 419.09 21.4 417.25 21.4C415.61 21.4 414.29 21.58 413.29 21.94C412.29 22.26 411.57 22.7 411.13 23.26C410.69 23.82 410.47 24.46 410.47 25.18C410.47 26.1 410.89 26.84 411.73 27.4C412.61 27.92 413.75 28.36 415.15 28.72C416.59 29.04 418.15 29.38 419.83 29.74C421.55 30.1 423.25 30.56 424.93 31.12C426.65 31.64 428.21 32.36 429.61 33.28C431.01 34.16 432.13 35.34 432.97 36.82C433.85 38.26 434.29 40.08 434.29 42.28C434.29 44.72 433.59 46.98 432.19 49.06C430.83 51.1 428.77 52.74 426.01 53.98C423.29 55.22 419.85 55.84 415.69 55.84Z" fill="#FF9595"/>
</svg>
