<svg width="628" height="88" viewBox="0 0 628 88" fill="none" xmlns="http://www.w3.org/2000/svg">
<path d="M70.5 37.287C49 28.7869 25.6675 30.9757 0 35.787V46.787C5.17354 47.2576 6.69188 49.9699 8 57.287C11.5 97.7869 69.5 96.2869 72.5 57.287C72.5 43.2869 87.5 43.7869 87.5 57.287C93.5 98.2869 152 95.7869 152 57.287C153.108 51.4135 154.995 49.2168 159.5 46.287V36.287C132.5 30.7869 109 28.7869 90.5 37.287H70.5Z" fill="white"/>
<path d="M69 44.2869C63.5 32.7869 18.5 31.7869 12 43.2869C10.2733 71.2014 18 82.7869 40.5 83.7869C62.5 82.7869 69.8127 67.342 69 44.2869Z" fill="#FF9595"/>
<path d="M149.733 43.9282C144.233 32.4282 99.2326 31.4282 92.7326 42.9282C91.0059 70.8427 98.7326 82.4282 121.233 83.4282C143.233 82.4282 150.545 66.9833 149.733 43.9282Z" fill="#FF9595"/>
<path d="M64 27.287C35.9895 24.8742 23 23.787 7.5 31.287C9.1994 27.3218 10.7274 25.3451 14.5 22.287C25.9235 16.2686 38.3378 18.9519 64 27.287Z" fill="white"/>
<path d="M154.5 10.2869C137.995 4.19319 124.191 9.75549 98.5 21.7869C112.616 12.2238 120.633 6.99985 138 1.7869C147.103 -2.12357 150.53 0.242744 154.5 10.2869Z" fill="white"/>
<path d="M214.88 72.84C211.52 72.84 208.42 72.3 205.58 71.22C202.74 70.14 200.26 68.62 198.14 66.66C196.06 64.66 194.44 62.34 193.28 59.7C192.12 57.06 191.54 54.16 191.54 51C191.54 47.84 192.12 44.94 193.28 42.3C194.44 39.66 196.06 37.36 198.14 35.4C200.26 33.4 202.74 31.86 205.58 30.78C208.42 29.7 211.52 29.16 214.88 29.16C218.28 29.16 221.38 29.7 224.18 30.78C227.02 31.86 229.48 33.4 231.56 35.4C233.64 37.36 235.26 39.66 236.42 42.3C237.62 44.94 238.22 47.84 238.22 51C238.22 54.16 237.62 57.08 236.42 59.76C235.26 62.4 233.64 64.7 231.56 66.66C229.48 68.62 227.02 70.14 224.18 71.22C221.38 72.3 218.28 72.84 214.88 72.84ZM214.88 63C216.48 63 217.96 62.72 219.32 62.16C220.72 61.6 221.92 60.8 222.92 59.76C223.96 58.68 224.76 57.4 225.32 55.92C225.92 54.44 226.22 52.8 226.22 51C226.22 49.16 225.92 47.52 225.32 46.08C224.76 44.6 223.96 43.34 222.92 42.3C221.92 41.22 220.72 40.4 219.32 39.84C217.96 39.28 216.48 39 214.88 39C213.28 39 211.78 39.28 210.38 39.84C209.02 40.4 207.82 41.22 206.78 42.3C205.78 43.34 204.98 44.6 204.38 46.08C203.82 47.52 203.54 49.16 203.54 51C203.54 52.8 203.82 54.44 204.38 55.92C204.98 57.4 205.78 58.68 206.78 59.76C207.82 60.8 209.02 61.6 210.38 62.16C211.78 62.72 213.28 63 214.88 63ZM209 26.58L217.04 17.46H228.44L217.16 26.58H209ZM252.796 72V39.42H239.896V30H277.516V39.42H264.676V72H252.796ZM281.942 72V30H293.822V72H281.942ZM323.214 72.84C319.894 72.84 316.814 72.32 313.974 71.28C311.174 70.2 308.734 68.68 306.654 66.72C304.614 64.76 303.014 62.46 301.854 59.82C300.694 57.14 300.114 54.2 300.114 51C300.114 47.8 300.694 44.88 301.854 42.24C303.014 39.56 304.614 37.24 306.654 35.28C308.734 33.32 311.174 31.82 313.974 30.78C316.814 29.7 319.894 29.16 323.214 29.16C327.094 29.16 330.554 29.84 333.594 31.2C336.674 32.56 339.234 34.52 341.274 37.08L333.714 43.92C332.354 42.32 330.854 41.1 329.214 40.26C327.614 39.42 325.814 39 323.814 39C322.094 39 320.514 39.28 319.074 39.84C317.634 40.4 316.394 41.22 315.354 42.3C314.354 43.34 313.554 44.6 312.954 46.08C312.394 47.56 312.114 49.2 312.114 51C312.114 52.8 312.394 54.44 312.954 55.92C313.554 57.4 314.354 58.68 315.354 59.76C316.394 60.8 317.634 61.6 319.074 62.16C320.514 62.72 322.094 63 323.814 63C325.814 63 327.614 62.58 329.214 61.74C330.854 60.9 332.354 59.68 333.714 58.08L341.274 64.92C339.234 67.44 336.674 69.4 333.594 70.8C330.554 72.16 327.094 72.84 323.214 72.84ZM340.828 72L359.368 30H371.068L389.668 72H377.308L362.788 35.82H367.468L352.948 72H340.828ZM350.968 63.84L354.028 55.08H374.548L377.608 63.84H350.968ZM410.497 72V30H431.977C437.497 30 441.617 31.02 444.337 33.06C447.057 35.06 448.417 37.7 448.417 40.98C448.417 43.14 447.837 45.04 446.677 46.68C445.557 48.28 443.957 49.56 441.877 50.52C439.837 51.44 437.397 51.9 434.557 51.9L435.757 49.02C438.717 49.02 441.297 49.48 443.497 50.4C445.697 51.28 447.397 52.58 448.597 54.3C449.837 55.98 450.457 58.04 450.457 60.48C450.457 64.12 448.977 66.96 446.017 69C443.097 71 438.817 72 433.177 72H410.497ZM422.257 63.42H432.217C434.257 63.42 435.797 63.08 436.837 62.4C437.917 61.68 438.457 60.6 438.457 59.16C438.457 57.72 437.917 56.66 436.837 55.98C435.797 55.26 434.257 54.9 432.217 54.9H421.417V46.68H430.417C432.417 46.68 433.917 46.34 434.917 45.66C435.917 44.98 436.417 43.96 436.417 42.6C436.417 41.24 435.917 40.24 434.917 39.6C433.917 38.92 432.417 38.58 430.417 38.58H422.257V63.42ZM467.53 46.26H487.03V55.14H467.53V46.26ZM468.37 62.82H490.33V72H456.61V30H489.55V39.18H468.37V62.82ZM491.883 72L510.423 30H522.123L540.723 72H528.363L513.843 35.82H518.523L504.003 72H491.883ZM502.023 63.84L505.083 55.08H525.603L528.663 63.84H502.023ZM544.091 72V30H553.871L577.031 57.96H572.411V30H584.051V72H574.271L551.111 44.04H555.731V72H544.091ZM607.19 72.84C603.75 72.84 600.43 72.42 597.23 71.58C594.07 70.7 591.49 69.58 589.49 68.22L593.39 59.46C595.27 60.66 597.43 61.66 599.87 62.46C602.35 63.22 604.81 63.6 607.25 63.6C608.89 63.6 610.21 63.46 611.21 63.18C612.21 62.86 612.93 62.46 613.37 61.98C613.85 61.46 614.09 60.86 614.09 60.18C614.09 59.22 613.65 58.46 612.77 57.9C611.89 57.34 610.75 56.88 609.35 56.52C607.95 56.16 606.39 55.8 604.67 55.44C602.99 55.08 601.29 54.62 599.57 54.06C597.89 53.5 596.35 52.78 594.95 51.9C593.55 50.98 592.41 49.8 591.53 48.36C590.65 46.88 590.21 45.02 590.21 42.78C590.21 40.26 590.89 37.98 592.25 35.94C593.65 33.9 595.73 32.26 598.49 31.02C601.25 29.78 604.69 29.16 608.81 29.16C611.57 29.16 614.27 29.48 616.91 30.12C619.59 30.72 621.97 31.62 624.05 32.82L620.39 41.64C618.39 40.56 616.41 39.76 614.45 39.24C612.49 38.68 610.59 38.4 608.75 38.4C607.11 38.4 605.79 38.58 604.79 38.94C603.79 39.26 603.07 39.7 602.63 40.26C602.19 40.82 601.97 41.46 601.97 42.18C601.97 43.1 602.39 43.84 603.23 44.4C604.11 44.92 605.25 45.36 606.65 45.72C608.09 46.04 609.65 46.38 611.33 46.74C613.05 47.1 614.75 47.56 616.43 48.12C618.15 48.64 619.71 49.36 621.11 50.28C622.51 51.16 623.63 52.34 624.47 53.82C625.35 55.26 625.79 57.08 625.79 59.28C625.79 61.72 625.09 63.98 623.69 66.06C622.33 68.1 620.27 69.74 617.51 70.98C614.79 72.22 611.35 72.84 607.19 72.84Z" fill="white"/>
</svg>
