<svg width="160" height="88" viewBox="0 0 160 88" fill="none" xmlns="http://www.w3.org/2000/svg">
<path d="M70.5 37.287C49 28.7869 25.6675 30.9757 0 35.787V46.787C5.17354 47.2576 6.69188 49.9699 8 57.287C11.5 97.7869 69.5 96.2869 72.5 57.287C72.5 43.2869 87.5 43.7869 87.5 57.287C93.5 98.2869 152 95.7869 152 57.287C153.108 51.4135 154.995 49.2168 159.5 46.287V36.287C132.5 30.7869 109 28.7869 90.5 37.287H70.5Z" fill="#FF9595"/>
<path d="M69 44.2869C63.5 32.7869 18.5 31.7869 12 43.2869C10.2733 71.2014 18 82.7869 40.5 83.7869C62.5 82.7869 69.8127 67.342 69 44.2869Z" fill="white"/>
<path d="M149.733 43.9282C144.233 32.4282 99.2326 31.4282 92.7326 42.9282C91.0059 70.8427 98.7326 82.4282 121.233 83.4282C143.233 82.4282 150.545 66.9833 149.733 43.9282Z" fill="white"/>
<path d="M64 27.287C35.9895 24.8741 23 23.7869 7.5 31.287C9.1994 27.3218 10.7274 25.3451 14.5 22.287C25.9235 16.2686 38.3378 18.9519 64 27.287Z" fill="#FF9595"/>
<path d="M154.5 10.2869C137.995 4.19319 124.191 9.75549 98.5 21.7869C112.616 12.2238 120.633 6.99985 138 1.7869C147.103 -2.12357 150.53 0.242744 154.5 10.2869Z" fill="#FF9595"/>
</svg>
