<svg width="628" height="88" viewBox="0 0 628 88" fill="none" xmlns="http://www.w3.org/2000/svg">
<path d="M70.5 37.287C49 28.7869 25.6675 30.9757 0 35.787V46.787C5.17354 47.2576 6.69188 49.9699 8 57.287C11.5 97.7869 69.5 96.2869 72.5 57.287C72.5 43.2869 87.5 43.7869 87.5 57.287C93.5 98.2869 152 95.7869 152 57.287C153.108 51.4135 154.995 49.2168 159.5 46.287V36.287C132.5 30.7869 109 28.7869 90.5 37.287H70.5Z" fill="#FF9595"/>
<path d="M69 44.2869C63.5 32.7869 18.5 31.7869 12 43.2869C10.2733 71.2014 18 82.7869 40.5 83.7869C62.5 82.7869 69.8127 67.342 69 44.2869Z" fill="white"/>
<path d="M149.733 43.9282C144.233 32.4282 99.2326 31.4282 92.7326 42.9282C91.0059 70.8427 98.7326 82.4282 121.233 83.4282C143.233 82.4282 150.545 66.9833 149.733 43.9282Z" fill="white"/>
<path d="M64 27.287C35.9895 24.8741 23 23.7869 7.5 31.287C9.1994 27.3218 10.7274 25.3451 14.5 22.287C25.9235 16.2686 38.3378 18.9519 64 27.287Z" fill="#FF9595"/>
<path d="M154.5 10.2869C137.995 4.19319 124.191 9.75549 98.5 21.7869C112.616 12.2238 120.633 6.99985 138 1.7869C147.103 -2.12357 150.53 0.242744 154.5 10.2869Z" fill="#FF9595"/>
<path d="M214.88 71.84C211.52 71.84 208.42 71.3 205.58 70.22C202.74 69.14 200.26 67.62 198.14 65.66C196.06 63.66 194.44 61.34 193.28 58.7C192.12 56.06 191.54 53.16 191.54 50C191.54 46.84 192.12 43.94 193.28 41.3C194.44 38.66 196.06 36.36 198.14 34.4C200.26 32.4 202.74 30.86 205.58 29.78C208.42 28.7 211.52 28.16 214.88 28.16C218.28 28.16 221.38 28.7 224.18 29.78C227.02 30.86 229.48 32.4 231.56 34.4C233.64 36.36 235.26 38.66 236.42 41.3C237.62 43.94 238.22 46.84 238.22 50C238.22 53.16 237.62 56.08 236.42 58.76C235.26 61.4 233.64 63.7 231.56 65.66C229.48 67.62 227.02 69.14 224.18 70.22C221.38 71.3 218.28 71.84 214.88 71.84ZM214.88 62C216.48 62 217.96 61.72 219.32 61.16C220.72 60.6 221.92 59.8 222.92 58.76C223.96 57.68 224.76 56.4 225.32 54.92C225.92 53.44 226.22 51.8 226.22 50C226.22 48.16 225.92 46.52 225.32 45.08C224.76 43.6 223.96 42.34 222.92 41.3C221.92 40.22 220.72 39.4 219.32 38.84C217.96 38.28 216.48 38 214.88 38C213.28 38 211.78 38.28 210.38 38.84C209.02 39.4 207.82 40.22 206.78 41.3C205.78 42.34 204.98 43.6 204.38 45.08C203.82 46.52 203.54 48.16 203.54 50C203.54 51.8 203.82 53.44 204.38 54.92C204.98 56.4 205.78 57.68 206.78 58.76C207.82 59.8 209.02 60.6 210.38 61.16C211.78 61.72 213.28 62 214.88 62ZM209 25.58L217.04 16.46H228.44L217.16 25.58H209ZM252.796 71V38.42H239.896V29H277.516V38.42H264.676V71H252.796ZM281.942 71V29H293.822V71H281.942ZM323.214 71.84C319.894 71.84 316.814 71.32 313.974 70.28C311.174 69.2 308.734 67.68 306.654 65.72C304.614 63.76 303.014 61.46 301.854 58.82C300.694 56.14 300.114 53.2 300.114 50C300.114 46.8 300.694 43.88 301.854 41.24C303.014 38.56 304.614 36.24 306.654 34.28C308.734 32.32 311.174 30.82 313.974 29.78C316.814 28.7 319.894 28.16 323.214 28.16C327.094 28.16 330.554 28.84 333.594 30.2C336.674 31.56 339.234 33.52 341.274 36.08L333.714 42.92C332.354 41.32 330.854 40.1 329.214 39.26C327.614 38.42 325.814 38 323.814 38C322.094 38 320.514 38.28 319.074 38.84C317.634 39.4 316.394 40.22 315.354 41.3C314.354 42.34 313.554 43.6 312.954 45.08C312.394 46.56 312.114 48.2 312.114 50C312.114 51.8 312.394 53.44 312.954 54.92C313.554 56.4 314.354 57.68 315.354 58.76C316.394 59.8 317.634 60.6 319.074 61.16C320.514 61.72 322.094 62 323.814 62C325.814 62 327.614 61.58 329.214 60.74C330.854 59.9 332.354 58.68 333.714 57.08L341.274 63.92C339.234 66.44 336.674 68.4 333.594 69.8C330.554 71.16 327.094 71.84 323.214 71.84ZM340.828 71L359.368 29H371.068L389.668 71H377.308L362.788 34.82H367.468L352.948 71H340.828ZM350.968 62.84L354.028 54.08H374.548L377.608 62.84H350.968ZM410.497 71V29H431.977C437.497 29 441.617 30.02 444.337 32.06C447.057 34.06 448.417 36.7 448.417 39.98C448.417 42.14 447.837 44.04 446.677 45.68C445.557 47.28 443.957 48.56 441.877 49.52C439.837 50.44 437.397 50.9 434.557 50.9L435.757 48.02C438.717 48.02 441.297 48.48 443.497 49.4C445.697 50.28 447.397 51.58 448.597 53.3C449.837 54.98 450.457 57.04 450.457 59.48C450.457 63.12 448.977 65.96 446.017 68C443.097 70 438.817 71 433.177 71H410.497ZM422.257 62.42H432.217C434.257 62.42 435.797 62.08 436.837 61.4C437.917 60.68 438.457 59.6 438.457 58.16C438.457 56.72 437.917 55.66 436.837 54.98C435.797 54.26 434.257 53.9 432.217 53.9H421.417V45.68H430.417C432.417 45.68 433.917 45.34 434.917 44.66C435.917 43.98 436.417 42.96 436.417 41.6C436.417 40.24 435.917 39.24 434.917 38.6C433.917 37.92 432.417 37.58 430.417 37.58H422.257V62.42ZM467.53 45.26H487.03V54.14H467.53V45.26ZM468.37 61.82H490.33V71H456.61V29H489.55V38.18H468.37V61.82ZM491.883 71L510.423 29H522.123L540.723 71H528.363L513.843 34.82H518.523L504.003 71H491.883ZM502.023 62.84L505.083 54.08H525.603L528.663 62.84H502.023ZM544.091 71V29H553.871L577.031 56.96H572.411V29H584.051V71H574.271L551.111 43.04H555.731V71H544.091ZM607.19 71.84C603.75 71.84 600.43 71.42 597.23 70.58C594.07 69.7 591.49 68.58 589.49 67.22L593.39 58.46C595.27 59.66 597.43 60.66 599.87 61.46C602.35 62.22 604.81 62.6 607.25 62.6C608.89 62.6 610.21 62.46 611.21 62.18C612.21 61.86 612.93 61.46 613.37 60.98C613.85 60.46 614.09 59.86 614.09 59.18C614.09 58.22 613.65 57.46 612.77 56.9C611.89 56.34 610.75 55.88 609.35 55.52C607.95 55.16 606.39 54.8 604.67 54.44C602.99 54.08 601.29 53.62 599.57 53.06C597.89 52.5 596.35 51.78 594.95 50.9C593.55 49.98 592.41 48.8 591.53 47.36C590.65 45.88 590.21 44.02 590.21 41.78C590.21 39.26 590.89 36.98 592.25 34.94C593.65 32.9 595.73 31.26 598.49 30.02C601.25 28.78 604.69 28.16 608.81 28.16C611.57 28.16 614.27 28.48 616.91 29.12C619.59 29.72 621.97 30.62 624.05 31.82L620.39 40.64C618.39 39.56 616.41 38.76 614.45 38.24C612.49 37.68 610.59 37.4 608.75 37.4C607.11 37.4 605.79 37.58 604.79 37.94C603.79 38.26 603.07 38.7 602.63 39.26C602.19 39.82 601.97 40.46 601.97 41.18C601.97 42.1 602.39 42.84 603.23 43.4C604.11 43.92 605.25 44.36 606.65 44.72C608.09 45.04 609.65 45.38 611.33 45.74C613.05 46.1 614.75 46.56 616.43 47.12C618.15 47.64 619.71 48.36 621.11 49.28C622.51 50.16 623.63 51.34 624.47 52.82C625.35 54.26 625.79 56.08 625.79 58.28C625.79 60.72 625.09 62.98 623.69 65.06C622.33 67.1 620.27 68.74 617.51 69.98C614.79 71.22 611.35 71.84 607.19 71.84Z" fill="#FF9595"/>
</svg>
